Coordinates
version=1
nRows=5
nColumns=46
inDegrees=yes

Units are S.I. units (second, meters, Newtons, ...)
Angles are in degrees.

endheader
time	pelvis_tilt	pelvis_list	pelvis_rotation	pelvis_tx	pelvis_ty	pelvis_tz	bb_angle	bb_tx	bb_ty	bb_tz	hip_flexion_r	hip_adduction_r	hip_rotation_r	knee_angle_r	knee_angle_r_beta	ankle_angle_r	subtalar_angle_r	mtp_angle_r	crank_angle_r	hip_flexion_l	hip_adduction_l	hip_rotation_l	knee_angle_l	knee_angle_l_beta	ankle_angle_l	subtalar_angle_l	mtp_angle_l	crank_angle_l	lumbar_extension	lumbar_bending	lumbar_rotation	arm_flex_r	arm_add_r	arm_rot_r	elbow_flex_r	pro_sup_r	wrist_flex_r	wrist_dev_r	arm_flex_l	arm_add_l	arm_rot_l	elbow_flex_l	pro_sup_l	wrist_flex_l	wrist_dev_l
      7.50500000	    -34.44642361	      4.28797950	    -14.15679302	      0.28856350	      1.01915716	     -0.20783086	      0.00000000	      0.50000000	      0.00000000	      0.25000000	    100.95066756	      1.83943218	      6.20037665	    107.20737262	      1.87112163	      2.68911960	      1.04759411	      0.00000000	      0.00000000	     38.24358703	     -8.20657816	     -9.82660730	     36.39249869	      0.63516893	    -14.34480870	     -8.86069376	      0.00000000	      0.00000000	    -30.51347628	     -4.13145678	     13.92750523	     57.91672417	    -38.78546967	     61.05337436	     74.93236450	     59.17352433	      0.00000000	      0.00000000	     52.52057102	    -15.79377093	     42.47957136	     54.91996852	     51.10289082	      0.00000000	      0.00000000
      7.51000000	    -34.60936847	      4.55465801	    -14.23496830	      0.28848247	      1.02151171	     -0.20751670	      0.00000000	      0.50000000	      0.00000000	      0.25000000	    100.15486291	      2.04139700	      6.22824368	    105.01146695	      1.83279585	      3.61005471	      1.14923228	      0.00000000	      0.00000000	     39.49157603	     -8.25115781	     -9.72778068	     38.88518040	      0.67867443	    -15.81418713	     -9.67872236	      0.00000000	      0.00000000	    -30.68181214	     -4.47465311	     13.97034726	     57.92164958	    -38.81001629	     60.91892977	     74.97153681	     59.08829781	      0.00000000	      0.00000000	     52.76181590	    -15.64778149	     42.36948581	     54.78385382	     51.07721990	      0.00000000	      0.00000000
      7.51500000	    -34.44762611	      4.99173884	    -14.06161034	      0.28844169	      1.02391299	     -0.20712093	      0.00000000	      0.50000000	      0.00000000	      0.25000000	     99.05051905	      1.99561151	      6.56271196	    102.88511379	      1.79568399	      4.33140210	      1.10765389	      0.00000000	      0.00000000	     40.51907482	     -7.95758705	     -9.50510507	     41.36828681	      0.72201281	    -17.21009882	     -9.79829111	      0.00000000	      0.00000000	    -31.15756042	     -5.02696902	     13.61221829	     57.88726409	    -38.81264329	     60.79949038	     74.97539474	     59.05174327	      0.00000000	      0.00000000	     53.13379807	    -15.56656922	     42.30488139	     54.77213673	     51.06716707	      0.00000000	      0.00000000
      7.52000000	    -34.68242108	      4.91956384	    -13.42289494	      0.28767097	      1.02540861	     -0.20663977	      0.00000000	      0.50000000	      0.00000000	      0.25000000	     98.05791413	      1.63619873	      6.43691179	    100.66896300	      1.75700486	      5.53646398	      1.53470820	      0.00000000	      0.00000000	     42.37507575	     -8.00399075	     -8.52655759	     44.42295591	      0.77532684	    -18.91874240	    -10.57639816	      0.00000000	      0.00000000	    -31.28948123	     -5.07961145	     14.64713061	     54.47064387	    -40.43746006	     55.68830428	     77.71931867	     57.28188283	      0.00000000	      0.00000000	     55.30232876	    -13.99252211	     45.13870362	     52.25759394	     51.28017464	      0.00000000	      0.00000000
      7.52500000	    -34.59220255	      5.19798041	    -13.12229413	      0.28739240	      1.02737115	     -0.20586958	      0.00000000	      0.50000000	      0.00000000	      0.25000000	     96.73218320	      1.55478059	      6.66533637	     98.32259778	      1.71605306	      6.32821882	      1.46722350	      0.00000000	      0.00000000	     43.67356335	     -7.86663231	     -8.12011699	     47.10904052	      0.82220786	    -20.46139815	    -10.58441077	      0.00000000	      0.00000000	    -31.66047993	     -5.44388522	     14.23005078	     54.51369165	    -40.31210820	     55.52133147	     77.69964616	     57.23414871	      0.00000000	      0.00000000	     55.86005300	    -14.04556828	     45.08885027	     52.28068435	     51.27789245	      0.00000000	      0.00000000
